<svg width="134" height="107" viewBox="0 0 134 107" fill="none" xmlns="http://www.w3.org/2000/svg">
<g filter="url(#filter0_d_4771_76)">
<path d="M75.0354 74.8905H35.276C31.419 74.8876 27.7127 73.3928 24.9329 70.719C22.1531 68.0452 20.5154 64.3997 20.3627 60.5458C20.2099 56.6918 21.5539 52.9282 24.1133 50.0427C26.6727 47.1573 30.2491 45.3738 34.0938 45.0656C34.642 41.1941 36.3903 37.592 39.0925 34.766C41.7947 31.9399 45.315 30.0322 49.158 29.3112C53.001 28.5901 56.9733 29.0921 60.5162 30.7464C64.059 32.4007 66.9941 35.1242 68.9084 38.5336C72.4194 37.3182 76.2129 37.1761 79.805 38.1256C83.3971 39.0751 86.625 41.073 89.0769 43.8645C91.5289 46.656 93.0937 50.1146 93.5719 53.7991C94.0501 57.4837 93.42 61.2272 91.7619 64.5521C90.7889 67.5564 88.8891 70.1751 86.3353 72.0325C83.7814 73.8899 80.7047 74.8905 77.5468 74.8905H75.0354Z" fill="url(#paint0_linear_4771_76)"/>
<path d="M77.5468 74.6827C79.1502 74.6827 80.7267 74.4267 82.2325 73.9218C83.6886 73.4335 85.0557 72.721 86.2956 71.804C87.5213 70.8976 88.5957 69.8117 89.4889 68.5767C90.3933 67.3262 91.0916 65.9507 91.5642 64.4882L91.5691 64.4732L91.5761 64.4591C92.2046 63.2031 92.6886 61.8744 93.0146 60.5099C93.3501 59.1057 93.5203 57.655 93.5203 56.1979C93.5203 54.9436 93.3939 53.6902 93.1447 52.4724C92.9019 51.2856 92.5395 50.1183 92.0677 49.0029C91.6045 47.9076 91.0311 46.8512 90.3635 45.863C89.7022 44.8842 88.9427 43.9637 88.1062 43.1272C87.2697 42.2906 86.3492 41.5312 85.3704 40.8699C84.3822 40.2023 83.3258 39.6289 82.2305 39.1656C81.1151 38.6938 79.9478 38.3315 78.761 38.0886C77.5432 37.8394 76.2897 37.7131 75.0354 37.7131C72.9586 37.7131 70.92 38.0549 68.9763 38.729L68.8123 38.7858L68.7272 38.6345C67.1455 35.822 64.8447 33.4599 62.0735 31.8038C60.6721 30.9663 59.1665 30.319 57.5985 29.8801C55.9808 29.4273 54.3006 29.1977 52.6044 29.1977C50.3229 29.1977 48.0958 29.6083 45.985 30.4181C43.9459 31.2004 42.0753 32.3305 40.4251 33.7769C38.7845 35.2151 37.423 36.9119 36.3784 38.8204C35.3082 40.7757 34.6087 42.8863 34.2994 45.0936L34.2762 45.2588L34.1099 45.2718C32.2493 45.4175 30.4593 45.9073 28.7894 46.7278C27.1668 47.525 25.7178 48.6033 24.4829 49.9328C21.9452 52.6645 20.5477 56.2236 20.5477 59.9545C20.5477 61.9429 20.937 63.8717 21.705 65.6873C22.0741 66.56 22.531 67.4017 23.0629 68.189C23.5898 68.969 24.1949 69.7024 24.8615 70.3689C25.528 71.0355 26.2614 71.6406 27.0413 72.1675C27.8287 72.6994 28.6704 73.1563 29.5431 73.5254C31.3587 74.2934 33.2875 74.6827 35.2759 74.6827H75.0354H77.5468ZM77.5468 74.8904H75.0354H35.2759C27.027 74.8904 20.34 68.2034 20.34 59.9545C20.34 52.1034 26.3973 45.6672 34.0937 45.0648C35.3668 35.9804 43.1691 28.99 52.6044 28.99C59.6041 28.99 65.7052 32.8372 68.9083 38.5327C70.8278 37.867 72.8893 37.5054 75.0354 37.5054C85.3591 37.5054 93.728 45.8744 93.728 56.1979C93.728 59.2004 93.0198 62.038 91.7619 64.552C89.823 70.5514 84.1917 74.8904 77.5468 74.8904Z" fill="white" fill-opacity="0.5"/>
</g>
<defs>
<filter id="filter0_d_4771_76" x="0.339966" y="0.98999" width="133.388" height="105.901" filterUnits="userSpaceOnUse" color-interpolation-filters="sRGB">
<feFlood flood-opacity="0" result="BackgroundImageFix"/>
<feColorMatrix in="SourceAlpha" type="matrix" values="0 0 0 0 0 0 0 0 0 0 0 0 0 0 0 0 0 0 127 0" result="hardAlpha"/>
<feOffset dx="10" dy="2"/>
<feGaussianBlur stdDeviation="15"/>
<feColorMatrix type="matrix" values="0 0 0 0 0 0 0 0 0 0 0 0 0 0 0 0 0 0 0.25 0"/>
<feBlend mode="normal" in2="BackgroundImageFix" result="effect1_dropShadow_4771_76"/>
<feBlend mode="normal" in="SourceGraphic" in2="effect1_dropShadow_4771_76" result="shape"/>
</filter>
<linearGradient id="paint0_linear_4771_76" x1="57.0392" y1="28.9905" x2="78.3576" y2="80.5328" gradientUnits="userSpaceOnUse">
<stop stop-color="white" stop-opacity="0.604"/>
<stop offset="1" stop-color="white" stop-opacity="0.2"/>
</linearGradient>
</defs>
</svg>
