<svg width="85" height="78" viewBox="0 0 85 78" fill="none" xmlns="http://www.w3.org/2000/svg">
<g filter="url(#filter0_d_4771_55)">
<path fill-rule="evenodd" clip-rule="evenodd" d="M38.4364 35.846C37.5651 36.1833 36.8309 36.5977 36.4195 36.8881C35.5397 37.5091 34.323 37.2994 33.7019 36.4195C33.0809 35.5397 33.2906 34.323 34.1705 33.7019C34.8641 33.2123 35.8849 32.6517 37.0286 32.209C38.1645 31.7693 39.5516 31.395 40.95 31.395C42.6683 31.395 43.8098 32.1176 44.5587 32.5918C44.6006 32.6183 44.6413 32.644 44.6807 32.6688C45.3795 33.1078 45.8094 33.345 46.605 33.345C47.4841 33.345 48.207 33.0451 49.1454 32.5759C49.2244 32.5364 49.3089 32.4931 49.3985 32.4473C50.2138 32.0299 51.4538 31.395 52.845 31.395C54.2613 31.395 55.5482 32.0469 56.3913 32.474C56.4618 32.5097 56.5292 32.5438 56.5933 32.5759C57.5997 33.079 58.2386 33.345 58.89 33.345C59.3674 33.345 60.1302 33.1445 60.9528 32.7805C61.3387 32.6098 61.6878 32.4251 61.962 32.2582C62.0987 32.175 62.2073 32.102 62.287 32.0434C62.3594 31.9903 62.389 31.9631 62.3891 31.9632C62.3891 31.9632 62.3889 31.9634 62.3887 31.9636C63.1504 31.2046 64.3832 31.2055 65.1439 31.9661C65.9054 32.7277 65.9054 33.9623 65.1439 34.7239C64.5623 35.3054 63.5188 35.9099 62.5309 36.347C61.5173 36.7955 60.1677 37.245 58.89 37.245C57.2108 37.245 55.8086 36.5439 54.865 36.0721L54.8492 36.0641C53.73 35.5045 53.2603 35.295 52.845 35.295C52.4391 35.295 52.042 35.4879 50.8896 36.0641C49.878 36.5699 48.4559 37.245 46.605 37.245C44.6706 37.245 43.4591 36.5072 42.606 35.9712C41.7992 35.4643 41.5079 35.295 40.95 35.295C40.2034 35.295 39.3155 35.5057 38.4364 35.846Z" fill="white"/>
<path fill-rule="evenodd" clip-rule="evenodd" d="M34.3414 53.786C33.47 54.1233 32.7358 54.5377 32.3244 54.8281C31.4446 55.4492 30.2279 55.2394 29.6068 54.3595C28.9858 53.4797 29.1955 52.263 30.0754 51.6419C30.769 51.1523 31.7898 50.5917 32.9335 50.149C34.0694 49.7093 35.4565 49.335 36.8549 49.335C38.5732 49.335 39.7147 50.0576 40.4636 50.5318C40.5055 50.5583 40.5462 50.584 40.5856 50.6088C41.2844 51.0478 41.7143 51.285 42.5099 51.285C43.389 51.285 44.1119 50.9851 45.0503 50.5159C45.1293 50.4764 45.2138 50.4331 45.3034 50.3873C46.1187 49.9699 47.3587 49.335 48.7499 49.335C50.1662 49.335 51.4531 49.9869 52.2962 50.414C52.3667 50.4497 52.4341 50.4838 52.4982 50.5159C53.5046 51.019 54.1436 51.285 54.7949 51.285C55.2723 51.285 56.0351 51.0845 56.8578 50.7205C57.2436 50.5498 57.5927 50.3651 57.8669 50.1982C58.0036 50.115 58.1122 50.042 58.1919 49.9834C58.2643 49.9304 58.2939 49.9031 58.294 49.9032C58.294 49.9032 58.2938 49.9034 58.2936 49.9037C59.0553 49.1446 60.2881 49.1455 61.0488 49.9061C61.8103 50.6677 61.8103 51.9023 61.0488 52.6639C60.4672 53.2455 59.4237 53.8499 58.4358 54.287C57.4222 54.7355 56.0726 55.185 54.7949 55.185C53.1157 55.185 51.7135 54.4839 50.7699 54.0121L50.7541 54.0041C49.6349 53.4445 49.1652 53.235 48.7499 53.235C48.344 53.235 47.9469 53.4279 46.7945 54.0041C45.7829 54.5099 44.3608 55.185 42.5099 55.185C40.5755 55.185 39.3641 54.4472 38.5109 53.9112C37.7041 53.4043 37.4128 53.235 36.8549 53.235C36.1083 53.235 35.2204 53.4457 34.3414 53.786Z" fill="white"/>
<path fill-rule="evenodd" clip-rule="evenodd" d="M56.2103 22.6591C57.0503 23.333 57.1849 24.5603 56.5109 25.4003C55.9137 26.1447 54.782 26.9746 53.6591 27.5938C52.5349 28.2137 50.9968 28.86 49.5139 28.86C47.5863 28.86 45.9974 27.8696 44.9618 27.224L44.9232 27.2C44.879 27.1724 44.8357 27.1454 44.7933 27.1189C44.2711 26.7932 43.8784 26.5482 43.4962 26.365C43.0992 26.1747 42.8661 26.13 42.7237 26.13C42.5882 26.13 42.374 26.1705 41.9964 26.3563C41.6623 26.5207 41.3315 26.7282 40.8861 27.0077C40.7895 27.0683 40.6875 27.1323 40.5789 27.2C39.4664 27.8932 37.8476 28.86 35.7143 28.86C33.4788 28.86 32.1046 27.8001 31.1854 27.0803C30.2412 26.341 29.9268 26.13 29.3622 26.13C28.564 26.13 27.5882 26.4127 26.5953 26.8918C25.6177 27.3634 24.7812 27.9489 24.298 28.3741C23.4894 29.0854 22.2573 29.0066 21.5459 28.198C20.8345 27.3895 20.9133 26.1573 21.7219 25.4459C22.4799 24.7791 23.6148 23.9996 24.9006 23.3792C26.1711 22.7663 27.7508 22.23 29.3622 22.23C31.3395 22.23 32.6327 23.253 33.4441 23.8948C33.4945 23.9347 33.543 23.9731 33.5898 24.0097C34.4138 24.6549 34.8833 24.96 35.7143 24.96C36.6476 24.96 37.4383 24.5618 38.5162 23.89C38.5932 23.8421 38.674 23.7912 38.758 23.7383C39.2044 23.4573 39.7414 23.1193 40.2748 22.8569C40.9377 22.5307 41.7639 22.23 42.7237 22.23C43.6764 22.23 44.5111 22.5266 45.182 22.8482C45.772 23.131 46.3519 23.4937 46.8318 23.7938C46.8844 23.8267 46.9358 23.8589 46.9858 23.89C48.1417 24.6104 48.8372 24.96 49.5139 24.96C50.0024 24.96 50.8372 24.6963 51.7757 24.1787C52.7155 23.6604 53.3361 23.1253 53.469 22.9597C54.143 22.1197 55.3703 21.9851 56.2103 22.6591Z" fill="white"/>
<path fill-rule="evenodd" clip-rule="evenodd" d="M46.0331 40.5699C46.8892 41.2233 47.0535 42.447 46.4001 43.3031C45.8282 44.0524 44.7435 44.8888 43.6663 45.5132C42.5949 46.1344 41.1008 46.8 39.6411 46.8C37.7555 46.8 36.2115 45.7879 35.236 45.1484C35.2194 45.1376 35.203 45.1268 35.1867 45.1161C35.1454 45.0891 35.105 45.0626 35.0655 45.0366C34.5661 44.7092 34.198 44.4678 33.8411 44.2879C33.4713 44.1016 33.277 44.07 33.182 44.07C33.0945 44.07 32.9184 44.097 32.5673 44.2786C32.2557 44.4397 31.9473 44.6432 31.5239 44.9224C31.4316 44.9833 31.3339 45.0477 31.2295 45.1161C30.177 45.8056 28.6021 46.8 26.5146 46.8C24.3205 46.8 22.978 45.7043 22.1108 44.9905C21.1973 44.2385 20.9373 44.07 20.4723 44.07C19.7539 44.07 18.8531 44.3395 17.9165 44.8146C16.9975 45.2807 16.2092 45.8606 15.754 46.2816C14.9634 47.0128 13.7297 46.9647 12.9984 46.174C12.2672 45.3834 12.3153 44.1497 13.1059 43.4184C13.8314 42.7474 14.9184 41.9623 16.1524 41.3364C17.3688 40.7195 18.8989 40.17 20.4723 40.17C22.4163 40.17 23.6836 41.2255 24.4475 41.8617C24.4969 41.9028 24.5442 41.9422 24.5895 41.9795C25.3806 42.6307 25.7918 42.9 26.5146 42.9C27.3442 42.9 28.0612 42.5294 29.0923 41.8539C29.1646 41.8065 29.2408 41.756 29.3203 41.7034C29.7445 41.4226 30.2617 41.0803 30.7756 40.8145C31.4142 40.4843 32.2278 40.17 33.182 40.17C34.1289 40.17 34.9503 40.4797 35.5962 40.8052C36.1643 41.0915 36.7218 41.4581 37.1774 41.7576C37.2275 41.7906 37.2764 41.8227 37.3239 41.8539C38.435 42.5818 39.0584 42.9 39.6411 42.9C40.0565 42.9 40.8196 42.6556 41.7102 42.1393C42.5952 41.6262 43.1773 41.0976 43.2999 40.9369C43.9533 40.0808 45.1769 39.9165 46.0331 40.5699Z" fill="white"/>
</g>
<defs>
<filter id="filter0_d_4771_55" x="1.47998" y="9.22993" width="83.235" height="62.9552" filterUnits="userSpaceOnUse" color-interpolation-filters="sRGB">
<feFlood flood-opacity="0" result="BackgroundImageFix"/>
<feColorMatrix in="SourceAlpha" type="matrix" values="0 0 0 0 0 0 0 0 0 0 0 0 0 0 0 0 0 0 127 0" result="hardAlpha"/>
<feOffset dx="4" dy="2"/>
<feGaussianBlur stdDeviation="7.5"/>
<feComposite in2="hardAlpha" operator="out"/>
<feColorMatrix type="matrix" values="0 0 0 0 1 0 0 0 0 1 0 0 0 0 1 0 0 0 0.596 0"/>
<feBlend mode="normal" in2="BackgroundImageFix" result="effect1_dropShadow_4771_55"/>
<feBlend mode="normal" in="SourceGraphic" in2="effect1_dropShadow_4771_55" result="shape"/>
</filter>
</defs>
</svg>
