<svg width="134" height="107" viewBox="0 0 134 107" fill="none" xmlns="http://www.w3.org/2000/svg">
<path d="M36.5742 76.5452C36.9066 76.5489 40.275 81.8084 40.275 83.8523C40.275 84.8338 39.8851 85.7751 39.191 86.4691C38.497 87.1631 37.5557 87.553 36.5742 87.553C35.5928 87.553 34.6515 87.1631 33.9574 86.4691C33.2634 85.7751 32.8735 84.8338 32.8735 83.8523C32.8735 81.8086 36.2421 76.5414 36.5742 76.5452Z" fill="#42A0F0"/>
<path d="M33.7528 85.2354C34.1226 85.3485 34.5925 84.8835 34.8025 84.1968C35.0124 83.5101 34.8828 82.8618 34.5131 82.7487C34.1433 82.6357 33.6733 83.1007 33.4634 83.7874C33.2534 84.4741 33.383 85.1224 33.7528 85.2354Z" fill="white"/>
<path d="M55.8898 76.5452C56.2221 76.5489 59.5905 81.8084 59.5905 83.8523C59.5905 84.8338 59.2006 85.7751 58.5066 86.4691C57.8126 87.1631 56.8713 87.553 55.8898 87.553C54.9083 87.553 53.967 87.1631 53.273 86.4691C52.579 85.7751 52.1891 84.8338 52.1891 83.8523C52.1891 81.8086 55.5577 76.5414 55.8898 76.5452Z" fill="#42A0F0"/>
<path d="M53.0683 85.2354C53.4381 85.3485 53.9081 84.8835 54.118 84.1968C54.328 83.5101 54.1984 82.8618 53.8286 82.7487C53.4588 82.6357 52.9889 83.1007 52.7789 83.7874C52.569 84.4741 52.6986 85.1224 53.0683 85.2354Z" fill="white"/>
<path d="M75.2055 76.5452C75.5378 76.5489 78.9062 81.8084 78.9062 83.8523C78.9062 84.8338 78.5163 85.7751 77.8223 86.4691C77.1282 87.1631 76.187 87.553 75.2055 87.553C74.224 87.553 73.2827 87.1631 72.5887 86.4691C71.8947 85.7751 71.5048 84.8338 71.5048 83.8523C71.5048 81.8086 74.8734 76.5414 75.2055 76.5452Z" fill="#42A0F0"/>
<path d="M72.384 85.2354C72.7538 85.3485 73.2238 84.8835 73.4337 84.1968C73.6436 83.5101 73.5141 82.8618 73.1443 82.7487C72.7745 82.6357 72.3045 83.1007 72.0946 83.7874C71.8847 84.4741 72.0142 85.1224 72.384 85.2354Z" fill="white"/>
<path d="M46.3358 60.345C46.6681 60.3487 50.0365 65.6082 50.0365 67.6521C50.0365 68.6336 49.6466 69.5749 48.9526 70.2689C48.2586 70.9629 47.3173 71.3528 46.3358 71.3528C45.3543 71.3528 44.4131 70.9629 43.719 70.2689C43.025 69.5749 42.6351 68.6336 42.6351 67.6521C42.6351 65.6084 46.0037 60.3412 46.3358 60.345Z" fill="#42A0F0"/>
<path d="M43.5144 69.0352C43.8842 69.1483 44.3541 68.6833 44.5641 67.9966C44.774 67.3099 44.6444 66.6616 44.2746 66.5485C43.9049 66.4355 43.4349 66.9005 43.225 67.5872C43.015 68.2739 43.1446 68.9222 43.5144 69.0352Z" fill="white"/>
<path d="M66.69 60.345C67.0223 60.3487 70.3907 65.6082 70.3907 67.6521C70.3907 68.6336 70.0008 69.5749 69.3068 70.2689C68.6127 70.9629 67.6714 71.3528 66.69 71.3528C65.7085 71.3528 64.7672 70.9629 64.0732 70.2689C63.3792 69.5749 62.9893 68.6336 62.9893 67.6521C62.9893 65.6084 66.3579 60.3412 66.69 60.345Z" fill="#42A0F0"/>
<path d="M63.8685 69.0352C64.2383 69.1483 64.7082 68.6833 64.9182 67.9966C65.1281 67.3099 64.9986 66.6616 64.6288 66.5485C64.259 66.4355 63.789 66.9005 63.5791 67.5872C63.3692 68.2739 63.4987 68.9222 63.8685 69.0352Z" fill="white"/>
<g filter="url(#filter0_d_4771_29)">
<path d="M75.0354 74.2605H35.276C31.419 74.2576 27.7127 72.7628 24.9329 70.089C22.1531 67.4152 20.5154 63.7697 20.3627 59.9158C20.2099 56.0618 21.5539 52.2982 24.1133 49.4127C26.6727 46.5273 30.2491 44.7438 34.0938 44.4356C34.642 40.5641 36.3903 36.962 39.0925 34.136C41.7947 31.3099 45.315 29.4022 49.158 28.6812C53.001 27.9601 56.9733 28.4621 60.5162 30.1164C64.059 31.7707 66.9941 34.4942 68.9084 37.9036C72.4195 36.6881 76.2131 36.5461 79.8052 37.4957C83.3974 38.4452 86.6253 40.4432 89.0772 43.2348C91.5292 46.0265 93.0939 49.4852 93.572 53.1698C94.0501 56.8545 93.4198 60.598 91.7615 63.9229C90.7883 66.9269 88.8885 69.5454 86.3348 71.4026C83.781 73.2599 80.7045 74.2604 77.5468 74.2605H75.0354Z" fill="url(#paint0_linear_4771_29)"/>
<path d="M77.5468 74.0527C79.1501 74.0527 80.7264 73.7967 82.2321 73.2918C83.6881 72.8036 85.0551 72.0911 86.295 71.1742C87.5206 70.2678 88.595 69.182 89.4883 67.9471C90.3927 66.6968 91.091 65.3213 91.5638 63.859L91.5686 63.844L91.5757 63.8299C92.2044 62.5738 92.6885 61.2449 93.0146 59.8804C93.3501 58.4763 93.5203 57.0254 93.5203 55.5679C93.5203 54.3136 93.3939 53.0601 93.1447 51.8424C92.9019 50.6556 92.5395 49.4883 92.0677 48.3729C91.6044 47.2776 91.0311 46.2212 90.3634 45.233C89.7021 44.2542 88.9427 43.3337 88.1061 42.4972C87.2696 41.6606 86.3491 40.9012 85.3703 40.2399C84.3821 39.5723 83.3257 38.9989 82.2305 38.5356C81.115 38.0638 79.9477 37.7015 78.761 37.4586C77.5432 37.2094 76.2897 37.0831 75.0354 37.0831C72.9586 37.0831 70.92 37.4248 68.9763 38.0989L68.8123 38.1558L68.7272 38.0045C67.1455 35.1919 64.8447 32.8299 62.0735 31.1738C60.6721 30.3362 59.1665 29.689 57.5985 29.2501C55.9808 28.7973 54.3006 28.5677 52.6044 28.5677C50.3229 28.5677 48.0958 28.9783 45.985 29.7881C43.9459 30.5704 42.0753 31.7005 40.4251 33.1469C38.7845 34.5851 37.423 36.2819 36.3784 38.1903C35.3082 40.1457 34.6087 42.2563 34.2994 44.4636L34.2762 44.6288L34.1099 44.6418C32.2493 44.7874 30.4593 45.2773 28.7894 46.0978C27.1668 46.895 25.7178 47.9733 24.4829 49.3028C21.9452 52.0345 20.5477 55.5936 20.5477 59.3245C20.5477 61.3129 20.937 63.2417 21.705 65.0573C22.0741 65.93 22.531 66.7717 23.0629 67.559C23.5898 68.339 24.1949 69.0724 24.8615 69.7389C25.528 70.4055 26.2614 71.0106 27.0413 71.5375C27.8287 72.0694 28.6704 72.5263 29.5431 72.8954C31.3587 73.6633 33.2875 74.0527 35.2759 74.0527H75.0354H77.5468ZM77.5468 74.2604H75.0354H35.2759C27.027 74.2604 20.34 67.5734 20.34 59.3245C20.34 51.4734 26.3973 45.0372 34.0937 44.4348C35.3668 35.3504 43.1691 28.36 52.6044 28.36C59.6041 28.36 65.7051 32.2071 68.9083 37.9027C70.8278 37.237 72.8893 36.8754 75.0354 36.8754C85.3589 36.8754 93.728 45.2444 93.728 55.5679C93.728 58.571 93.0199 61.4085 91.7614 63.9229C89.8221 69.9215 84.191 74.2604 77.5468 74.2604Z" fill="white" fill-opacity="0.5"/>
</g>
<defs>
<filter id="filter0_d_4771_29" x="0.339966" y="0.359985" width="133.388" height="105.901" filterUnits="userSpaceOnUse" color-interpolation-filters="sRGB">
<feFlood flood-opacity="0" result="BackgroundImageFix"/>
<feColorMatrix in="SourceAlpha" type="matrix" values="0 0 0 0 0 0 0 0 0 0 0 0 0 0 0 0 0 0 127 0" result="hardAlpha"/>
<feOffset dx="10" dy="2"/>
<feGaussianBlur stdDeviation="15"/>
<feColorMatrix type="matrix" values="0 0 0 0 0 0 0 0 0 0 0 0 0 0 0 0 0 0 0.25 0"/>
<feBlend mode="normal" in2="BackgroundImageFix" result="effect1_dropShadow_4771_29"/>
<feBlend mode="normal" in="SourceGraphic" in2="effect1_dropShadow_4771_29" result="shape"/>
</filter>
<linearGradient id="paint0_linear_4771_29" x1="57.0392" y1="28.3605" x2="78.3576" y2="79.9028" gradientUnits="userSpaceOnUse">
<stop stop-color="white" stop-opacity="0.604"/>
<stop offset="1" stop-color="white" stop-opacity="0.2"/>
</linearGradient>
</defs>
</svg>
