<svg width="101" height="101" viewBox="0 0 101 101" fill="none" xmlns="http://www.w3.org/2000/svg">
<g filter="url(#filter0_d_4771_155)">
<path d="M40.84 68.9545C51.949 68.9545 60.9545 59.949 60.9545 48.8401C60.9545 37.7312 51.949 28.7256 40.84 28.7256C29.7311 28.7256 20.7256 37.7312 20.7256 48.8401C20.7256 59.949 29.7311 68.9545 40.84 68.9545Z" fill="#FA9E42"/>
</g>
<path fill-rule="evenodd" clip-rule="evenodd" d="M40.6172 21.7009C40.6914 21.7003 40.7657 21.7 40.84 21.7C40.9144 21.7 40.9886 21.7003 41.0628 21.7009C42.1397 21.7096 43.0057 22.5896 42.9971 23.6665C42.9884 24.7435 42.1083 25.6095 41.0314 25.6008C40.9677 25.6003 40.9039 25.6 40.84 25.6C40.7762 25.6 40.7124 25.6003 40.6486 25.6008C39.5717 25.6095 38.6917 24.7435 38.683 23.6665C38.6743 22.5896 39.5403 21.7096 40.6172 21.7009ZM51.5624 25.9559C52.0941 25.0194 53.2844 24.6912 54.2209 25.2229C54.3497 25.296 54.4779 25.3701 54.6053 25.4453C55.5331 25.9922 55.8417 27.1877 55.2948 28.1154C54.7478 29.0431 53.5523 29.3518 52.6246 28.8049C52.5155 28.7405 52.4058 28.677 52.2955 28.6144C51.359 28.0828 51.0308 26.8925 51.5624 25.9559ZM30.1176 25.956C30.6493 26.8925 30.3211 28.0828 29.3845 28.6144C29.2743 28.677 29.1646 28.7405 29.0554 28.8049C28.1277 29.3518 26.9322 29.0432 26.3853 28.1154C25.8383 27.1877 26.147 25.9922 27.0747 25.4453C27.2022 25.3701 27.3303 25.296 27.4591 25.2229C28.3957 24.6912 29.5859 25.0194 30.1176 25.956ZM61.5647 34.3853C62.4924 33.8384 63.6879 34.147 64.2348 35.0748C64.31 35.2022 64.3841 35.3304 64.4572 35.4592C64.9889 36.3957 64.6607 37.586 63.7242 38.1177C62.7876 38.6493 61.5974 38.3211 61.0657 37.3846C61.0031 37.2743 60.9396 37.1646 60.8752 37.0555C60.3283 36.1278 60.637 34.9323 61.5647 34.3853ZM20.1154 34.3853C21.0431 34.9323 21.3518 36.1278 20.8048 37.0555C20.7405 37.1646 20.677 37.2743 20.6144 37.3846C20.0827 38.3211 18.8924 38.6494 17.9559 38.1177C17.0193 37.586 16.6911 36.3957 17.2228 35.4592C17.2959 35.3304 17.3701 35.2022 17.4452 35.0748C17.9922 34.147 19.1876 33.8384 20.1154 34.3853ZM66.0136 46.6831C67.0905 46.6744 67.9705 47.5404 67.9792 48.6173C67.9798 48.6915 67.9801 48.7658 67.9801 48.8401C67.9801 48.9144 67.9798 48.9887 67.9792 49.0629C67.9705 50.1398 67.0905 51.0058 66.0136 50.9971C64.9366 50.9885 64.0707 50.1084 64.0793 49.0315C64.0798 48.9677 64.0801 48.9039 64.0801 48.8401C64.0801 48.7762 64.0798 48.7124 64.0793 48.6487C64.0707 47.5718 64.9366 46.6917 66.0136 46.6831ZM15.6665 46.6831C16.7434 46.6917 17.6094 47.5718 17.6007 48.6487C17.6002 48.7124 17.6 48.7762 17.6 48.8401C17.6 48.9039 17.6002 48.9678 17.6007 49.0315C17.6094 50.1084 16.7434 50.9885 15.6665 50.9971C14.5896 51.0058 13.7095 50.1398 13.7008 49.0629C13.7003 48.9887 13.7 48.9144 13.7 48.8401C13.7 48.7658 13.7003 48.6915 13.7008 48.6173C13.7095 47.5404 14.5896 46.6744 15.6665 46.6831ZM63.7242 59.5625C64.6607 60.0942 64.9889 61.2844 64.4572 62.221C64.3841 62.3498 64.31 62.4779 64.2348 62.6054C63.6879 63.5331 62.4924 63.8418 61.5647 63.2948C60.637 62.7479 60.3283 61.5524 60.8752 60.6247C60.9396 60.5156 61.0031 60.4058 61.0657 60.2956C61.5974 59.359 62.7876 59.0308 63.7242 59.5625ZM17.9559 59.5625C18.8924 59.0308 20.0827 59.359 20.6144 60.2956C20.677 60.4058 20.7405 60.5156 20.8048 60.6247C21.3518 61.5524 21.0431 62.7479 20.1154 63.2948C19.1876 63.8418 17.9922 63.5331 17.4452 62.6054C17.3701 62.4779 17.2959 62.3498 17.2228 62.221C16.6911 61.2845 17.0193 60.0942 17.9559 59.5625ZM55.2948 69.5647C55.8417 70.4925 55.5331 71.6879 54.6053 72.2349C54.4779 72.31 54.3497 72.3842 54.2209 72.4573C53.2844 72.989 52.0941 72.6608 51.5625 71.7242C51.0308 70.7877 51.359 69.5974 52.2955 69.0657C52.4058 69.0031 52.5155 68.9397 52.6246 68.8753C53.5524 68.3284 54.7478 68.637 55.2948 69.5647ZM26.3853 69.5647C26.9322 68.637 28.1277 68.3284 29.0554 68.8753C29.1646 68.9397 29.2743 69.0031 29.3845 69.0657C30.3211 69.5974 30.6493 70.7877 30.1176 71.7242C29.5859 72.6608 28.3957 72.989 27.4591 72.4573C27.3303 72.3842 27.2022 72.31 27.0747 72.2349C26.147 71.6879 25.8383 70.4925 26.3853 69.5647ZM38.683 74.0136C38.6917 72.9367 39.5717 72.0707 40.6486 72.0794C40.7124 72.0799 40.7762 72.0802 40.84 72.0802C40.9039 72.0802 40.9677 72.0799 41.0314 72.0794C42.1083 72.0707 42.9884 72.9367 42.9971 74.0136C43.0057 75.0905 42.1397 75.9706 41.0628 75.9793C40.9886 75.9799 40.9144 75.9802 40.84 75.9802C40.804 75.9802 40.768 75.9801 40.7321 75.9799C40.6938 75.9798 40.6555 75.9796 40.6172 75.9793C39.5403 75.9706 38.6743 75.0905 38.683 74.0136Z" fill="#FA9E42"/>
<g filter="url(#filter1_f_4771_155)">
<path d="M39.4408 46.3148C46.4772 42.5775 50.4576 36.3024 48.3312 32.2989C46.2048 28.2955 38.7769 28.0798 31.7405 31.8171C24.7041 35.5545 20.7238 41.8296 22.8502 45.833C24.9766 49.8364 32.4045 50.0521 39.4408 46.3148Z" fill="#F8E36F"/>
</g>
<defs>
<filter id="filter0_d_4771_155" x="0.725586" y="0.725616" width="100.229" height="100.229" filterUnits="userSpaceOnUse" color-interpolation-filters="sRGB">
<feFlood flood-opacity="0" result="BackgroundImageFix"/>
<feColorMatrix in="SourceAlpha" type="matrix" values="0 0 0 0 0 0 0 0 0 0 0 0 0 0 0 0 0 0 127 0" result="hardAlpha"/>
<feOffset dx="10" dy="2"/>
<feGaussianBlur stdDeviation="15"/>
<feColorMatrix type="matrix" values="0 0 0 0 0 0 0 0 0 0 0 0 0 0 0 0 0 0 0.25 0"/>
<feBlend mode="normal" in2="BackgroundImageFix" result="effect1_dropShadow_4771_155"/>
<feBlend mode="normal" in="SourceGraphic" in2="effect1_dropShadow_4771_155" result="shape"/>
</filter>
<filter id="filter1_f_4771_155" x="2.27759" y="9.14935" width="66.6261" height="59.8332" filterUnits="userSpaceOnUse" color-interpolation-filters="sRGB">
<feFlood flood-opacity="0" result="BackgroundImageFix"/>
<feBlend mode="normal" in="SourceGraphic" in2="BackgroundImageFix" result="shape"/>
<feGaussianBlur stdDeviation="10" result="effect1_foregroundBlur_4771_155"/>
</filter>
</defs>
</svg>
